<?xml version="1.0" encoding="UTF-8" standalone="no"?>
<!-- Created with Inkscape (http://www.inkscape.org/) -->

<svg
   version="1.1"
   id="svg824"
   width="265.9646"
   height="159.43739"
   viewBox="0 0 265.9646 159.43739"
   sodipodi:docname="logo.svg"
   inkscape:version="1.1.1 (3bf5ae0d25, 2021-09-20)"
   xmlns:inkscape="http://www.inkscape.org/namespaces/inkscape"
   xmlns:sodipodi="http://sodipodi.sourceforge.net/DTD/sodipodi-0.dtd"
   xmlns="http://www.w3.org/2000/svg"
   xmlns:svg="http://www.w3.org/2000/svg">
  <defs
     id="defs828">
    <filter
       style="color-interpolation-filters:sRGB;"
       inkscape:label="Brilliance"
       id="filter4753"
       x="0"
       y="0"
       width="1"
       height="1">
      <feComposite
         in2="SourceGraphic"
         operator="arithmetic"
         k1="0"
         k2="1"
         result="composite1"
         id="feComposite4739"
         k3="0"
         k4="0" />
      <feColorMatrix
         in="composite1"
         values="1"
         type="saturate"
         result="colormatrix1"
         id="feColorMatrix4741" />
      <feFlood
         flood-opacity="1"
         flood-color="rgb(126,128,255)"
         result="flood1"
         id="feFlood4743" />
      <feBlend
         in="flood1"
         in2="colormatrix1"
         mode="multiply"
         result="blend1"
         id="feBlend4745" />
      <feBlend
         in2="blend1"
         mode="screen"
         result="blend2"
         id="feBlend4747" />
      <feColorMatrix
         in="blend2"
         values="1"
         type="saturate"
         result="colormatrix2"
         id="feColorMatrix4749" />
      <feComposite
         in="colormatrix2"
         in2="SourceGraphic"
         operator="in"
         result="fbSourceGraphic"
         id="feComposite4751" />
      <feColorMatrix
         result="fbSourceGraphicAlpha"
         in="fbSourceGraphic"
         values="0 0 0 -1 0 0 0 0 -1 0 0 0 0 -1 0 0 0 0 1 0"
         id="feColorMatrix10368" />
      <feColorMatrix
         id="feColorMatrix10370"
         values="1.67 -0.21 -0.21 0 -0.14 -0.21 1.67 -0.21 0 -0.14 -0.21 -0.21 1.67 0 -0.14 0 0 0 1 0 "
         in="fbSourceGraphic"
         result="fbSourceGraphic" />
      <feColorMatrix
         result="fbSourceGraphicAlpha"
         in="fbSourceGraphic"
         values="0 0 0 -1 0 0 0 0 -1 0 0 0 0 -1 0 0 0 0 1 0"
         id="feColorMatrix11416" />
      <feColorMatrix
         id="feColorMatrix11418"
         values="1.47 -0.1 -0.1 0 -0.14 -0.1 1.47 -0.1 0 -0.14 -0.1 -0.1 1.47 0 -0.14 0 0 0 1 0 "
         in="fbSourceGraphic" />
    </filter>
    <filter
       style="color-interpolation-filters:sRGB;"
       inkscape:label="Brilliance"
       id="filter4889"
       x="0"
       y="0"
       width="1"
       height="1">
      <feComposite
         in2="SourceGraphic"
         operator="arithmetic"
         k1="0"
         k2="1"
         result="composite1"
         id="feComposite4875"
         k3="0"
         k4="0" />
      <feColorMatrix
         in="composite1"
         values="1"
         type="saturate"
         result="colormatrix1"
         id="feColorMatrix4877" />
      <feFlood
         flood-opacity="1"
         flood-color="rgb(175,255,179)"
         result="flood1"
         id="feFlood4879" />
      <feBlend
         in="flood1"
         in2="colormatrix1"
         mode="multiply"
         result="blend1"
         id="feBlend4881" />
      <feBlend
         in2="blend1"
         mode="screen"
         result="blend2"
         id="feBlend4883" />
      <feColorMatrix
         in="blend2"
         values="1"
         type="saturate"
         result="colormatrix2"
         id="feColorMatrix4885" />
      <feComposite
         in="colormatrix2"
         in2="SourceGraphic"
         operator="in"
         result="fbSourceGraphic"
         id="feComposite4887" />
      <feColorMatrix
         result="fbSourceGraphicAlpha"
         in="fbSourceGraphic"
         values="0 0 0 -1 0 0 0 0 -1 0 0 0 0 -1 0 0 0 0 1 0"
         id="feColorMatrix10372" />
      <feColorMatrix
         id="feColorMatrix10374"
         values="1.67 -0.21 -0.21 0 -0.14 -0.21 1.67 -0.21 0 -0.14 -0.21 -0.21 1.67 0 -0.14 0 0 0 1 0 "
         in="fbSourceGraphic"
         result="fbSourceGraphic" />
      <feColorMatrix
         result="fbSourceGraphicAlpha"
         in="fbSourceGraphic"
         values="0 0 0 -1 0 0 0 0 -1 0 0 0 0 -1 0 0 0 0 1 0"
         id="feColorMatrix10754" />
      <feColorMatrix
         id="feColorMatrix10756"
         type="hueRotate"
         values="348"
         result="color1"
         in="fbSourceGraphic" />
      <feColorMatrix
         id="feColorMatrix10758"
         type="saturate"
         values="1"
         result="fbSourceGraphic" />
      <feColorMatrix
         result="fbSourceGraphicAlpha"
         in="fbSourceGraphic"
         values="0 0 0 -1 0 0 0 0 -1 0 0 0 0 -1 0 0 0 0 1 0"
         id="feColorMatrix10954" />
      <feColorMatrix
         id="feColorMatrix10956"
         values="1.47 -0.21 -0.21 0 -0.14 -0.21 1.47 -0.21 0 -0.14 -0.21 -0.21 1.47 0 -0.14 0 0 0 1 0 "
         in="fbSourceGraphic" />
    </filter>
  </defs>
  <sodipodi:namedview
     id="namedview826"
     pagecolor="#ffffff"
     bordercolor="#cccccc"
     borderopacity="1"
     inkscape:pageshadow="0"
     inkscape:pageopacity="1"
     inkscape:pagecheckerboard="0"
     showgrid="false"
     inkscape:zoom="1.4142136"
     inkscape:cx="-14.849242"
     inkscape:cy="83.792153"
     inkscape:window-width="1920"
     inkscape:window-height="1017"
     inkscape:window-x="1912"
     inkscape:window-y="-8"
     inkscape:window-maximized="1"
     inkscape:current-layer="g830" />
  <g
     inkscape:groupmode="layer"
     inkscape:label="Image"
     id="g830"
     transform="translate(131.58148,-1.1349185)">
    <g
       id="g1214"
       transform="translate(-131.28801,1.5723115)"
       style="filter:url(#filter4753)">
      <rect
         style="fill:#4f5090;fill-opacity:1;stroke:none;stroke-width:7.92269"
         id="rect4931"
         width="10.03735"
         height="50.173603"
         x="100.91301"
         y="108.30269" />
      <path
         style="fill:#e6e6e6;fill-opacity:1"
         d="M 0,132.5 V 106 H 26.5 53 V 53 0 H 79.5 106 V 79.5 159 H 53 0 Z"
         id="path1266" />
      <path
         style="fill:#e0e0e0;fill-opacity:1"
         d="M 0,132.5 V 106 H 26.5 53 V 53 0 H 79.5 106 V 79.5 159 H 53 0 Z"
         id="path1264" />
      <path
         style="fill:#dadada;fill-opacity:1"
         d="M 0,132.5 V 106 H 26.5 53 V 53 0 H 79.5 106 V 79.5 159 H 53 0 Z"
         id="path1262" />
      <path
         style="fill:#d4d4d4;fill-opacity:1"
         d="M 0,132.5 V 106 H 26.5 53 V 53 0 H 79.5 106 V 79.5 159 H 53 0 Z"
         id="path1260" />
      <path
         style="fill:#cecece;fill-opacity:1"
         d="M 0,132.5 V 106 H 26.5 53 V 53 0 H 79.5 106 V 79.5 159 H 53 0 Z"
         id="path1258" />
      <path
         style="fill:#c8c8c8;fill-opacity:1"
         d="M 0,132.5 V 106 H 26.5 53 V 53 0 H 79.5 106 V 79.5 159 H 53 0 Z"
         id="path1256" />
      <path
         style="fill:#c2c2c2;fill-opacity:1"
         d="M 0,132.5 V 106 H 26.5 53 V 53 0 H 79.5 106 V 79.5 159 H 53 0 Z"
         id="path1254" />
      <path
         style="fill:#bcbcbc;fill-opacity:1"
         d="M 0,132.5 V 106 H 26.5 53 V 53 0 H 79.5 106 V 79.5 159 H 53 0 Z"
         id="path1252" />
      <path
         style="fill:#b6b6b6;fill-opacity:1"
         d="M 0,132.5 V 106 H 26.5 53 V 53 0 H 79.5 106 V 79.5 159 H 53 0 Z"
         id="path1250" />
      <path
         style="fill:#b0b0b0;fill-opacity:1"
         d="M 0,132.5 V 106 H 26.5 53 V 53 0 H 79.5 106 V 79.5 159 H 53 0 Z"
         id="path1248" />
      <path
         style="fill:#aaaaaa;fill-opacity:1"
         d="M 0,132.5 V 106 H 26.5 53 V 53 0 H 79.5 106 V 79.5 159 H 53 0 Z"
         id="path1246" />
      <path
         style="fill:#a4a4a4;fill-opacity:1"
         d="m 0,132.28416 v -26.71584 l 5.2814453,5.21584 c 4.4533039,4.39799 5.8253217,5.19449 8.7499997,5.07966 2.339803,-0.0919 2.73635,-0.27721 1.218555,-0.56955 C 13.320443,114.92262 13,114.22992 13,110.43045 V 106 H 33 53 V 52.78416 -0.43167967 l 5.281445,5.21583987 c 4.453304,4.3979854 5.825322,5.1944862 8.75,5.0796577 C 69.371248,9.7719529 69.767795,9.5866071 68.25,9.294267 66.377942,8.9336929 66,8.2094625 66,4.9827086 V 1.1045192 L 60.75,0.73724192 c -2.8875,-0.20200248 6.1125,-0.45051929 20,-0.55225958 L 106,0 V 79.5 159 H 53 0 Z m 68.129566,-17.00568 c -2.164537,-0.41013 -2.327213,-0.83261 -1.872837,-4.86381 L 66.754326,106 H 60.164755 53.575184 L 58.5,111 c 4.183193,4.24706 5.457539,4.97949 8.462408,4.86382 2.554832,-0.0984 2.879074,-0.26096 1.167158,-0.58534 z m 0,-52.999995 C 65.965029,61.868347 65.802353,61.445874 66.256729,57.414667 L 66.754326,53 H 60.164755 53.575184 L 58.5,58 c 4.183193,4.247055 5.457539,4.979492 8.462408,4.863818 2.554832,-0.09835 2.879074,-0.260958 1.167158,-0.585333 z"
         id="path1244" />
      <path
         style="fill:#9e9e9e;fill-opacity:1"
         d="M 0,133 C 0,118.7 0.35630641,107 0.79179203,107 1.2272776,107 3.5709712,109.025 6,111.5 l 4.416416,4.5 7.041792,-0.14983 c 3.872986,-0.0824 5.779993,-0.33964 4.237794,-0.57163 -2.618082,-0.39384 -2.783841,-0.69885 -2.5,-4.60017 L 19.5,106.5 36.25,106.22582 53,105.95164 V 52.759981 -0.43167967 L 58.281445,4.7841602 63.562891,10 70.531445,9.8501679 C 74.36415,9.7677603 76.2625,9.5128702 74.75,9.2837456 72.298293,8.9123429 72,8.4495193 72,5.016911 72,2.872388 71.446229,0.94321541 70.75,0.6622807 70.0625,0.38486842 77.7125,0.12236842 87.75,0.07894737 L 106,0 V 79.5 159 H 53 0 Z m 74.628753,-17.72795 c -2.757355,-0.41131 -2.851477,-0.60369 -2.372837,-4.85017 L 72.754326,106 h -9.589571 -9.589571 l 4.924816,5 4.924816,5 7.037592,-0.14983 c 3.870676,-0.0824 5.745531,-0.34256 4.166345,-0.57812 z m 0,-53.000004 C 71.871398,61.860744 71.777276,61.668357 72.255916,57.421878 L 72.754326,53 H 63.164755 53.575184 L 58.5,58 l 4.924816,5 7.037592,-0.149832 c 3.870676,-0.08241 5.745531,-0.342563 4.166345,-0.578122 z"
         id="path1242" />
      <path
         style="fill:#989898;fill-opacity:1"
         d="m 0.01531277,134.75 c 0.008422,-13.3375 0.36190795,-24.79539 0.78552428,-25.46199 0.54317375,-0.85472 2.08621965,-0.0567 5.23468725,2.70736 L 10.5,115.91473 26.53416,115.95736 42.56832,116 47.78416,110.71855 53,105.43711 V 52.874485 0.31186123 L 58.25,5.149783 63.5,9.9877048 79.468555,9.9938524 95.437109,10 100.71855,4.7841602 106,-0.43167967 V 79.28416 159 H 53 0 Z M 100.5,111 l 4.92482,-5 H 79.712408 c -14.141824,0 -25.716069,0.3375 -25.720544,0.75 -0.0045,0.4125 2.133025,2.64521 4.75,4.96158 L 63.5,115.92316 79.537592,115.96158 95.575184,116 Z m 0,-53 4.92482,-5 H 79.712408 c -14.141824,0 -25.716069,0.3375 -25.720544,0.75 -0.0045,0.4125 2.133025,2.64521 4.75,4.961579 L 63.5,62.923157 79.537592,62.961579 95.575184,63 Z M 84.75,0.25960294 c 3.4375,-0.19527076 9.0625,-0.19527076 12.5,0 3.4375,0.19527077 0.625,0.35503776 -6.25,0.35503776 -6.875,0 -9.6875,-0.15976699 -6.25,-0.35503776 z"
         id="path1240" />
      <path
         style="fill:#929292;fill-opacity:1"
         d="m 0.18457821,135.04812 c 0.19755823,-15.00178 0.70850232,-24.34425 1.36736829,-25.00194 0.7351618,-0.73385 2.0740874,0.005 4.4461668,2.45187 L 9.3923336,116 H 25.980327 42.56832 L 47.78416,110.71855 53,105.43711 53.116001,79.468555 c 0.0638,-14.282705 0.322858,-25.175546 0.575682,-24.206312 0.252825,0.969234 0.804321,1.549244 1.225547,1.288912 0.421226,-0.260332 2.275444,1.084158 4.120485,2.987757 L 62.392334,63 H 78.983759 95.575184 L 100.5,58 105.42482,53 H 79.212408 53 l 0.136182,-26.75 c 0.0749,-14.7125 0.332073,-25.73082606 0.571495,-24.485169 0.239421,1.245657 0.781836,2.0506673 1.205365,1.7889117 0.42353,-0.2617555 2.279632,1.0815705 4.124673,2.985169 L 62.392334,10 H 78.914721 95.437109 L 100.71855,4.7841602 106,-0.43167967 V 79.28416 159 H 52.934578 -0.13084359 Z M 100.5,111 l 4.92482,-5 H 79.35108 53.277344 l 0.495482,2.59195 c 0.274166,1.4342 0.796022,2.10567 1.168327,1.50327 0.416822,-0.67444 1.962447,0.24184 4.062012,2.40805 L 62.392334,116 h 16.591425 16.591425 z"
         id="path1238" />
      <path
         style="fill:#8c8c8c;fill-opacity:1"
         d="m 0,139.625 c 0,-23.76001 0.24356616,-25.28698 4.1243744,-25.85656 1.6861614,-0.24748 3.3784502,0.1325 4.0170509,0.90197 C 8.9786323,115.67918 13.265229,116 25.906605,116 H 42.56832 L 47.78416,110.71855 53,105.43711 53.149832,80.468555 c 0.08241,-13.732705 0.34174,-23.685019 0.576294,-22.116253 0.376719,2.519607 0.769699,2.801925 3.369149,2.420407 1.713863,-0.251542 3.403477,0.123324 4.04615,0.897698 C 61.978649,62.6792 66.265806,63 78.910037,63 H 95.575184 L 100.5,58 105.42482,53 H 79.212408 53 l 0.149832,-25.25 c 0.08241,-13.8875 0.34174,-23.9664642 0.576294,-22.3976982 0.376719,2.5196076 0.769699,2.8019253 3.369149,2.4204071 1.713863,-0.2515418 3.403477,0.1233239 4.04615,0.8976982 C 61.978313,9.6787949 66.254203,10 78.840999,10 h 16.59611 L 100.71855,4.7841602 106,-0.43167967 V 79.28416 159 H 53 0 Z M 100.5,111 l 4.92482,-5 H 79.212408 53 l 0.01531,2.75 c 0.02257,4.0539 1.368146,5.60101 4.37197,5.0268 1.524134,-0.29136 3.067111,0.0658 3.728812,0.86309 0.869143,1.04725 4.9622,1.36011 17.793942,1.36011 h 16.665147 z"
         id="path1236" />
      <path
         style="fill:#868686;fill-opacity:1"
         d="m 0,141.125 c 0,-9.83125 0.28728158,-19.31141 0.63840351,-21.06702 0.61104899,-3.05524 0.82389639,-3.18061 4.96746849,-2.9258 2.3809858,0.14642 4.643704,-0.0484 5.028263,-0.43298 C 11.018694,116.31464 18.361205,116 26.950827,116 H 42.56832 L 47.78416,110.71855 53,105.43711 53.116001,82.968555 c 0.0638,-12.357705 0.313448,-21.724407 0.554772,-20.814893 0.306523,1.155244 1.80473,1.762302 4.970771,2.014108 2.492601,0.198244 4.744511,0.0166 5.004246,-0.403663 C 63.905524,63.343848 71.195893,63 79.846609,63 H 95.575184 L 100.5,58 105.42482,53 H 79.212408 53 l 0.116001,-22.75 c 0.0638,-12.5125 0.313448,-22.0058519 0.554772,-21.0963376 0.306523,1.1552436 1.80473,1.7623016 4.970771,2.0141076 2.492601,0.198244 4.744511,0.0166 5.004246,-0.403663 C 63.905524,10.343848 71.164826,10 79.777572,10 H 95.437109 L 100.71855,4.7841602 106,-0.43167967 V 79.28416 159 H 53 0 Z M 79.987592,116 h 15.587592 l 4.924816,-5 4.92482,-5 H 79.212408 53 l 0.01531,4.25 c 0.0084,2.3375 0.351761,4.77898 0.762976,5.4255 0.870848,1.36918 8.275865,2.19877 9.671711,1.08352 C 63.9725,116.34156 71.414416,116 79.987592,116 Z"
         id="path1234" />
      <path
         style="fill:#808080;fill-opacity:1"
         d="m 0.0086921,144.75 c 0.00478065,-7.8375 0.29246158,-16.6125 0.63929095,-19.5 L 1.2785819,120 h 3.7773757 c 2.0862281,0 4.0031915,0.55963 4.2817617,1.25 0.2774123,0.6875 0.5399123,0.065 0.5833333,-1.38337 0.1053854,-3.51522 1.6573224,-3.83648 18.6131074,-3.85298 L 42.56832,116 47.78416,110.71855 53,105.43711 53.078947,84.968555 C 53.122368,73.71085 53.384868,65.0625 53.662281,65.75 53.942675,66.444889 55.869006,67 58,67 c 2.130994,0 4.057325,0.555111 4.337719,1.25 0.277413,0.6875 0.539913,0.06498 0.583334,-1.383369 0.105387,-3.515316 1.657163,-3.83648 18.616539,-3.852976 L 95.575184,63 100.5,58 105.42482,53 H 79.212408 53 L 53.07895,32.25 C 53.122368,20.8375 53.384868,12.0625 53.662281,12.75 53.942675,13.444889 55.869006,14 58,14 c 2.130994,0 4.057325,0.555111 4.337719,1.25 0.277413,0.6875 0.539913,0.06498 0.583334,-1.383369 0.105331,-3.513435 1.660353,-3.836469 18.547502,-3.852976 L 95.437109,10 100.71855,4.7841602 106,-0.43167967 V 79.28416 159 H 53 0 Z M 65.306596,116.61549 c 1.206372,-0.3235 8.51032,-0.59433 16.230996,-0.60184 L 95.575184,116 100.5,111 l 4.92482,-5 H 79.212408 53 v 5.91821 c 0,8.19124 0.309833,8.70046 5.020447,8.25123 2.820704,-0.269 4.023184,0.0151 4.129385,0.97552 0.08241,0.74527 0.332876,0.16336 0.556596,-1.29313 0.258163,-1.68072 1.20807,-2.86304 2.600168,-3.23634 z"
         id="path1232" />
      <path
         style="fill:#7a7a7a;fill-opacity:1"
         d="m 0.00599376,151.25 c 0.00329656,-4.2625 0.29499435,-11.4625 0.6482173,-16 L 1.2964346,127 H 5.064884 c 2.0790869,0 3.9945611,0.56036 4.2728353,1.25 0.2774123,0.6875 0.5399123,-1.5625 0.5833333,-5 L 10,117 H 25.781303 41.562607 L 47.281303,111.221 53,105.44201 53.149832,86.971003 C 53.23224,76.811951 53.48713,69.7375 53.716254,71.25 c 0.371403,2.451707 0.834227,2.75 4.266835,2.75 2.144523,0 4.073696,0.553771 4.35463,1.25 0.277413,0.6875 0.539913,-1.5625 0.583334,-5 L 63,64 H 78.78416 94.56832 L 100,58.5 105.43168,53 H 79.21584 53 l 0.149832,-18.75 c 0.08241,-10.3125 0.337298,-17.5125 0.566422,-16 0.371403,2.451707 0.834227,2.75 4.266835,2.75 2.144523,0 4.073696,0.553771 4.35463,1.25 0.277413,0.6875 0.539913,-1.5625 0.583334,-5 L 63,11 H 78.721003 94.442005 L 100.221,5.2813035 106,-0.43739302 V 79.281303 159 H 53 0 Z M 78.831878,117 H 94.56832 L 100,111.5 105.43168,106 H 79.21584 53 l 0.01365,8.75 c 0.01924,12.33123 0.239724,12.87405 5.043095,12.41598 2.774837,-0.26462 4.000342,0.0255 4.13593,0.97898 0.105973,0.74527 0.352446,-1.45746 0.547717,-4.89496 L 63.09543,117 h 15.736443 z"
         id="path1230" />
      <path
         style="fill:#747474;fill-opacity:1"
         d="M 0.35326399,151.34912 C 0.70896879,147.14114 1,142.41614 1,140.84912 1,138.20192 1.2775727,138 4.9166667,138 c 2.1976608,0 4.1380392,0.54862 4.4210526,1.25 0.4030388,0.99884 1.0481257,-12.07949 1.0111607,-20.5 -0.007,-1.59226 1.399425,-1.75 15.603023,-1.75 H 41.562607 L 47.281303,111.221 53,105.44201 53.116001,93.471003 C 53.179802,86.886951 53.437798,82.2875 53.689326,83.25 54.024813,84.533784 55.17055,85 57.989991,85 c 2.139001,0 4.067014,0.554316 4.347728,1.25 0.403039,0.998835 1.048126,-12.079488 1.011161,-20.5 C 63.34189,64.157727 64.748441,64 78.954759,64 H 94.56832 L 100,58.5 105.43168,53 H 79.21584 53 l 0.116001,-12.25 c 0.0638,-6.7375 0.321797,-11.4625 0.573325,-10.5 0.335487,1.283784 1.481224,1.75 4.300665,1.75 2.139001,0 4.067014,0.554316 4.347728,1.25 0.403039,0.998835 1.048126,-12.079488 1.011161,-20.5 C 63.341892,11.158029 64.745434,11 78.891602,11 H 94.442005 L 100.221,5.2813035 106,-0.43739302 V 79.281303 159 H 52.853264 -0.29347203 Z M 63.135556,128.25 63.441455,117 H 79.004887 94.56832 L 100,111.5 105.43168,106 H 79.21584 53 v 11.86043 c 0,6.52323 0.271765,13.84317 0.603921,16.26651 l 0.603922,4.40609 3.896078,-0.37155 C 60.784357,137.90586 62,138.18672 62,139.06163 c 0,0.69944 0.186673,1.0842 0.414829,0.85504 0.228156,-0.22917 0.552483,-5.47917 0.720727,-11.66667 z"
         id="path1228" />
      <path
         style="fill:#6e6e6e;fill-opacity:1"
         d="M 0.91268046,158.57935 C 0.67161032,158.33828 0.63794977,156.0843 0.83787925,153.57052 L 1.2013874,149 H 5.450951 9.7005146 l 0.6497424,-9.15362 C 10.707616,134.81188 11,127.61188 11,123.84638 V 117 H 26.287592 41.575184 L 46.5,112 c 2.708649,-2.75 5.279233,-5 5.712408,-5 C 52.645584,107 53,116.45 53,128 v 21 h 4.850257 4.850258 l 0.649742,-9.15362 C 63.707616,134.81188 64,127.61188 64,123.84638 V 117 H 79.287592 94.575184 L 99.5,112 c 2.70865,-2.75 5.28683,-5 5.72929,-5 0.44246,0 0.68438,11.5875 0.53759,25.75 L 105.5,158.5 53.425495,158.75883 c -28.640978,0.14235 -52.2717444,0.0616 -52.51281454,-0.17948 z M 53.078947,99.766603 C 53.122368,96.319972 53.384868,94.0625 53.662281,94.75 53.955185,95.475894 55.955724,96 58.433591,96 h 4.266924 l 0.649742,-9.153625 C 63.707616,81.811882 64,74.611882 64,70.846375 V 64 H 79.287592 94.575184 L 99.5,59 c 2.70865,-2.75 5.28683,-5 5.72929,-5 0.44246,0 0.68438,11.5875 0.53759,25.75 L 105.5,105.5 79.25,105.7666 53,106.03321 53.07895,99.766603 Z m 0,-53 C 53.122368,43.319972 53.384868,41.0625 53.662281,41.75 53.955185,42.475894 55.955724,43 58.433591,43 h 4.266924 l 0.649742,-9.153625 C 63.707616,28.811882 64,21.611882 64,17.846375 V 11 H 79.287592 94.575184 L 99.5,6 c 2.70865,-2.75 5.28683,-5 5.72929,-5 0.44246,0 0.68438,11.5875 0.53759,25.75 L 105.5,52.5 79.25,52.766603 53,53.033207 53.07895,46.766603 Z"
         id="path1226" />
      <path
         style="fill:#686868;fill-opacity:1"
         d="M 1,158.22929 C 1,157.78683 3.25,155.20865 6,152.5 l 5,-4.92482 V 132.28759 117 h 15.863158 15.863158 l 4.676915,-5 c 2.572303,-2.75 4.891479,-5 5.153724,-5 0.262246,0 0.356713,11.5875 0.209927,25.75 L 52.5,158.5 26.75,158.76688 C 12.5875,158.91367 1,158.67175 1,158.22929 Z m 53,0 c 0,-0.44246 2.25,-3.02064 5,-5.72929 l 5,-4.92482 V 132.28759 117 h 15.718555 15.718554 l 5.298801,-5.23298 5.26565,-5.81303 -0.23421,26.56303 L 105.5,158.5 79.75,158.76688 C 65.5875,158.91367 54,158.67175 54,158.22929 Z m 0,-53 c 0,-0.44246 2.25,-3.02064 5,-5.72929 l 5,-4.924816 V 79.287592 64 h 15.718555 15.718554 l 5.298801,-5.232979 5.2988,-5.232978 -0.26736,25.982978 L 105.5,105.5 79.75,105.76688 C 65.5875,105.91367 54,105.67175 54,105.22929 Z M 54,52.229291 C 54,51.78683 56.25,49.208649 59,46.5 l 5,-4.924816 V 26.287592 11 H 79.718555 95.437109 L 100.73591,5.7670213 106.03471,0.5340426 105.76735,26.517021 105.5,52.5 79.75,52.766882 C 65.5875,52.913668 54,52.671751 54,52.229291 Z"
         id="path1224"
         sodipodi:nodetypes="sscccccssscsssscccccccccsssscccccccccsssscccccccccss" />
      <path
         style="fill:#626262;fill-opacity:1"
         d="m 5.5,153 4.924816,-5 H 26.212408 42 V 132.71584 117.43168 L 47.5,112 53,106.56832 V 132.28416 158 H 26.787592 0.57518369 Z m 53,0 4.924816,-5 H 79.212408 95 V 132.71584 117.43168 L 100.5,112 l 5.50156,-6.04601 -0.007,16.58017 c -0.003,8.78121 -0.29572,20.35334 -0.65083,25.71584 L 104.69835,158 H 79.136769 53.575184 Z M 78.555218,105.23211 53.610435,104.96421 58.517626,99.982105 63.424816,95 H 79.212408 95 V 79.71584 64.43168 l 5.61513,-5.46584 5.61514,-5.46584 -0.51128,25.346141 c -0.2812,13.940377 -0.89551,25.640379 -1.36513,25.999999 -0.46962,0.35962 -12.079012,0.53331 -25.798642,0.38597 z m 0,-53.000005 L 53.610435,51.96421 58.517626,46.982105 63.424816,42 H 79.212408 95 V 26.71584 11.43168 L 100.61513,5.9658398 106.23027,0.5 105.71899,25.846141 c -0.2812,13.940377 -0.89551,25.640377 -1.36513,26 -0.46962,0.359622 -12.079012,0.533306 -25.798642,0.385964 z"
         id="path1222"
         sodipodi:nodetypes="cccccccccccccccccccccccccccscccccccccsssscccccccccsss" />
      <path
         style="fill:#5d5d5d;fill-opacity:1"
         d="M 5.6756535,152.97843 10.851307,148 H 27.05973 43.268153 L 42.572529,132.75 41.876905,117.5 47.438453,112.03416 53,106.56832 v 17.06915 c 0,17.51745 -0.835199,30.1279 -1.899476,28.67969 -0.330288,-0.44944 -2.150913,-1.37375 -4.045833,-2.05402 l -3.445309,-1.23685 4.403517,4.48685 L 52.416416,158 26.458208,157.97843 0.5,157.95686 Z m 52.9999995,0 L 63.851307,148 H 80.05973 96.268153 l -0.695624,-15.25 -0.695624,-15.25 5.684705,-5.5 5.43995,-6.04601 -0.37435,13.54601 c -0.19774,7.15537 -0.62092,17.1625 -0.62315,22.25 -0.004,8.68015 -0.13132,9.25 -2.0698,9.25 -1.13616,0 -3.048659,-0.50403 -4.250001,-1.12007 -1.263071,-0.6477 -0.304056,0.82839 2.273951,3.5 L 105.41642,158 79.458208,157.97843 53.5,157.95686 Z m 0,-53.000002 L 63.851307,95 H 80.05973 96.268153 L 95.572529,79.75 94.876905,64.5 100.56161,59 l 5.6847,-5.5 -0.6191,13 c -0.34051,7.15 -0.62092,17.1625 -0.62315,22.25 -0.004,8.680151 -0.13132,9.25 -2.0698,9.25 -1.13616,0 -3.048659,-0.504032 -4.250001,-1.120072 -1.263071,-0.647694 -0.304056,0.828395 2.273951,3.500002 L 105.41642,105 79.458208,104.97843 53.5,104.95686 Z m 0,-53 L 63.851307,42 H 80.05973 96.268153 L 95.572529,26.75 94.876905,11.5 100.56161,6 l 5.6847,-5.5 -0.6191,13 c -0.34051,7.15 -0.62092,17.1625 -0.62315,22.25 -0.004,8.680151 -0.13132,9.25 -2.0698,9.25 -1.13616,0 -3.048659,-0.504032 -4.250001,-1.120072 -1.263071,-0.647694 -0.304056,0.828395 2.273951,3.5 L 105.41642,52 79.458208,51.978428 53.5,51.956857 Z"
         id="path1220"
         sodipodi:nodetypes="ccccccccsssccccccccccccccscsssccccccccccccscsssccccccccccccccssscccc" />
      <path
         style="fill:#575757;fill-opacity:1"
         d="M 6,153.5 10.416416,149 H 26.5 42.583584 L 47,153.5 51.416416,158 H 26.5 1.5835841 Z m 53,0 4.416416,-4.5 H 79.5 95.583584 L 100,153.5 104.41642,158 H 79.5 54.583584 Z M 43.015313,125.46241 43,116.42482 l 4.776161,-4.70435 4.776161,-4.70434 -0.182661,4.74194 c -0.100463,2.60806 -0.224736,8.36407 -0.276161,12.79113 L 52,132.5984 48.384936,132.17636 c -2.362306,-0.27579 -3.916422,0.0537 -4.484687,0.9508 -0.530504,0.83749 -0.875595,-2.15147 -0.884936,-7.66475 z m 53.063634,0 L 96,116.42482 l 4.75,-4.68218 4.75,-4.68218 -0.30715,12.46977 L 104.88569,132 h -3.85951 c -2.151938,0 -4.08267,0.55304 -4.363899,1.25 -0.277413,0.6875 -0.539913,-2.81692 -0.583334,-7.78759 z M 59,100.5 63.416416,96 H 79.354503 95.29259 l 4.81086,4.5 4.81087,4.5 H 79.748951 54.583584 Z M 96.078947,72.462408 96,63.424816 100.75,58.74264 105.5,54.060465 105.19285,66.530232 104.88569,79 h -3.85951 c -2.151938,0 -4.08267,0.553041 -4.363899,1.25 -0.277413,0.6875 -0.539913,-2.816916 -0.583334,-7.787592 z M 59,47.5 63.416416,43 H 79.354503 95.29259 l 4.81086,4.5 4.81087,4.5 H 79.748951 54.583584 Z M 96.078947,19.462408 96,10.424816 100.75,5.7426404 105.5,1.0604645 105.19285,13.530232 104.88569,26 h -3.85951 c -2.151938,0 -4.08267,0.553041 -4.363899,1.25 -0.277413,0.6875 -0.539913,-2.816916 -0.583334,-7.787592 z"
         id="path1218" />
      <path
         style="fill:#515151;fill-opacity:1"
         d="M 46.958208,112.74912 C 49.410222,110.1371 51.547722,108 51.708208,108 c 0.160486,0 0.219775,1.9125 0.131755,4.25 -0.146419,3.88836 -0.195191,3.96226 -0.573166,0.8685 l -0.41313,-3.38151 -4.176833,3.88062 L 42.5,117.49823 Z m 53,8.8e-4 C 104.10217,108.33481 105,107.54091 105,108.29179 c 0,0.16049 -2.1375,2.29799 -4.75,4.75 L 95.5,117.5 Z m 0,-53 C 102.41022,57.1375 104.54772,55 104.70821,55 c 0.75088,0 -0.043,0.897827 -4.45821,5.041792 L 95.5,64.5 Z m 0,-53 C 102.41022,4.1375 104.54772,2 104.70821,2 c 0.75088,0 -0.043,0.8978267 -4.45821,5.041792 L 95.5,11.5 Z"
         id="path1216" />
    </g>
    <g
       id="g1304"
       transform="translate(-131.0417,1.0723115)"
       style="filter:url(#filter4889)">
      <path
         style="fill:#e6e6e6;fill-opacity:1"
         d="M 106,133 V 107 H 132.5 159 V 80 53 h 53 53 V 79.5 106 H 238.5 212 v 26.5 26.5 h -53 -53 z"
         id="path1360" />
      <path
         style="fill:#e0e0e0;fill-opacity:1"
         d="M 106,133 V 107 H 132.5 159 V 80 53 h 53 53 V 79.5 106 H 238.5 212 v 26.5 26.5 h -53 -53 z"
         id="path1358" />
      <path
         style="fill:#dadada;fill-opacity:1"
         d="M 106,133 V 107 H 132.5 159 V 80 53 h 53 53 V 79.5 106 H 238.5 212 v 26.5 26.5 h -53 -53 z"
         id="path1356" />
      <path
         style="fill:#d4d4d4;fill-opacity:1"
         d="M 106,133 V 107 H 132.5 159 V 80 53 h 53 53 V 79.5 106 H 238.5 212 v 26.5 26.5 h -53 -53 z"
         id="path1354" />
      <path
         style="fill:#cecece;fill-opacity:1"
         d="M 106,133 V 107 H 132.5 159 V 80 53 h 53 53 V 79.5 106 H 238.5 212 v 26.5 26.5 h -53 -53 z"
         id="path1352" />
      <path
         style="fill:#c8c8c8;fill-opacity:1"
         d="M 106,133 V 107 H 132.5 159 V 80 53 h 53 53 V 79.5 106 H 238.5 212 v 26.5 26.5 h -53 -53 z"
         id="path1350" />
      <path
         style="fill:#c2c2c2;fill-opacity:1"
         d="m 106,133 v -26 h 26.48367 26.48366 L 159.23367,80.25 159.5,53.5 212.25,53.241159 265,52.982319 V 79.491159 106 H 238.5 212 v 26.5 26.5 h -53 -53 z"
         id="path1348" />
      <path
         style="fill:#bcbcbc;fill-opacity:1"
         d="m 106,133 v -26 h 26.48367 26.48366 L 159.23367,80.25 159.5,53.5 212.25,53.241159 265,52.982319 V 79.491159 106 H 238.5 212 v 26.5 26.5 h -53 -53 z"
         id="path1346" />
      <path
         style="fill:#b6b6b6;fill-opacity:1"
         d="m 106,133 v -26 h 26.5 26.5 l 0.1846,-24.25 c 0.10153,-13.3375 0.23025,-25.375 0.28604,-26.75 l 0.10145,-2.5 52.71396,-0.258841 L 265,52.982319 V 79.491159 106 H 238.5 212 v 26.5 26.5 h -53 -53 z"
         id="path1344" />
      <path
         style="fill:#b0b0b0;fill-opacity:1"
         d="m 106,133 v -26 h 26.5 26.5 l 0.007,-20.25 c 0.004,-11.1375 0.29398,-23.2875 0.6446,-27 L 160.28921,53 H 212.6446 265 V 79.5 106 H 238.5 212 v 26.5 26.5 h -53 -53 z"
         id="path1342" />
      <path
         style="fill:#aaaaaa;fill-opacity:1"
         d="m 106,133 v -26 h 26.5 26.5 l 0.005,-17.25 c 0.003,-9.4875 0.29571,-21.6375 0.65082,-27 L 160.30165,53 H 212.65082 265 V 79.5 106 H 238.5 212 v 26.5 26.5 h -53 -53 z"
         id="path1340" />
      <path
         style="fill:#a4a4a4;fill-opacity:1"
         d="M 106,133 105.75525,106.45399 132.33951,107 h 26.33951 l 0.65415,-26.160329 c 0.35979,-14.388181 0.91946,-26.425681 1.24373,-26.75 0.32426,-0.324319 23.95212,-0.706734 52.50634,-0.84981 L 265,52.979721 V 79.489861 106 H 238.5 212 v 26.5 26.5 h -53 -53 z"
         id="path1338"
         sodipodi:nodetypes="ccccssscccccccccc" />
      <path
         style="fill:#9e9e9e;fill-opacity:1"
         d="m 106,133 c 0,-14.3 -0.21571,-26.24609 0.17949,-26.24609 0.39521,0 3.73202,2.60859 6.75628,5.49609 3.02426,2.8875 4.72591,4.31457 3.78144,3.17126 C 115.77275,114.27795 115,111.91545 115,110.17126 V 107 h 21.88664 21.88665 l 0.73853,-26.589115 0.73853,-26.589114 4.75671,4.685185 c 3.23036,3.181779 5.35616,4.531138 6.62483,4.205116 1.61991,-0.416286 1.58339,-0.495481 -0.2749,-0.596071 C 169.06658,61.992022 168,60.228336 168,56.564948 c 0,-2.107687 0.55168,-2.31811 7.65088,-2.918212 C 179.85886,53.291031 189.88828,53 197.93847,53 h 14.63671 L 217.5,58 c 2.95146,2.996518 5.74127,4.953519 6.96241,4.883999 2.00695,-0.114257 2.00751,-0.123516 0.0376,-0.615683 -2.52746,-0.631462 -3.46531,-2.077136 -3.48469,-5.37158 -0.0148,-2.522966 0.22068,-2.623213 7.63557,-3.25 C 232.85886,53.291031 242.75886,53 250.65088,53 H 265 V 79.5 106 H 238.5 212 v 26.5 26.5 h -53 -53 z m 63.65499,-17.82874 C 168.74474,114.16545 168,112.16896 168,110.73462 c 0,-2.19285 0.51724,-2.67209 3.25,-3.01122 1.7875,-0.22183 0.021,-0.47534 -3.92565,-0.56336 L 160.14869,107 l 5.17566,4.97843 c 5.15479,4.95836 7.47951,6.6723 4.33064,3.19283 z"
         id="path1336"
         sodipodi:nodetypes="ssssscccccsssssscssscsscccccccccssssscss" />
      <path
         style="fill:#989898;fill-opacity:1"
         d="m 106,132.78416 -0.24475,-26.33017 5.5262,5.33017 c 4.37337,4.21824 5.91071,5.21595 8.75,5.21646 l 3.46855,6.2e-4 -0.34651,-5.00062 L 122.80697,107 h 17.94373 17.94372 l 0.64824,-11.25 c 0.35654,-6.1875 0.65029,-18.208084 0.65279,-26.712408 L 160,53.575184 l 4.78435,4.712408 c 4.46895,4.401748 5.1117,4.704761 9.75,4.596407 2.73111,-0.0638 4.17815,-0.321797 3.21565,-0.573325 C 176.4623,61.974163 176,60.82756 176,57.970301 V 54.08725 L 194.25,53.793625 212.5,53.5 l 5.03145,4.75 c 4.67889,4.417172 5.37958,4.741872 10,4.633999 2.7327,-0.0638 4.18105,-0.321797 3.21855,-0.573325 C 229.4623,61.974163 229,60.82756 229,57.970301 V 54.08725 L 247.00119,53.793625 265.00238,53.5 265.00119,79.75 265,106 H 238.5 212 v 26.5 26.5 h -53 -53 z m 70.16302,-20.20227 c -0.31573,-3.96989 -0.11356,-4.46332 1.9928,-4.86381 1.2893,-0.24515 -2.3639,-0.507 -8.11823,-0.5819 L 159.57518,107 164.5,112 c 4.0713,4.13345 5.53917,5 8.46961,5 h 3.5448 z"
         id="path1334"
         sodipodi:nodetypes="ccsscccccsscsssscccssssccccccccccccssscsscs" />
      <path
         style="fill:#929292;fill-opacity:1"
         d="m 106,132.78416 -0.24475,-26.33017 5.5262,5.33017 5.28144,5.21584 6.96856,6.2e-4 6.96855,6.2e-4 -0.34651,-5.00062 L 129.80697,107 h 13.30892 13.30893 l -4.96241,5.19798 -4.96241,5.19798 6.67856,-5.94798 6.67855,-5.94798 0.0714,-25.343118 L 160,54.813763 164.88878,58.906882 169.77756,63 h 15.82977 15.82978 l 5.1174,-5.053836 5.11741,-5.053836 5.41404,5.036325 5.41404,5.036326 15.96855,0.01751 L 254.43711,63 259.71855,57.78416 265,52.56832 V 79.28416 106 H 238.5 212 V 132.5 159 H 159 106 Z M 183.15651,112.5 182.79861,108 h 12.8089 12.80891 L 204,112.5 c -2.42903,2.475 -4.19331,4.5 -3.92062,4.5 0.27269,0 2.71197,-2.25 5.42062,-5 l 4.92482,-5 H 185 159.57518 l 4.92482,5 4.92482,5 h 7.04479 7.0448 z M 183,58 v -4 h 13.20295 13.20295 l -3.9059,4 -3.9059,4 H 192.29705 183 Z m 53,0 v -4 h 13.20295 13.20295 l -3.9059,4 -3.9059,4 H 245.29705 236 Z"
         id="path1332"
         sodipodi:nodetypes="cccccccccccccccccccccccccccccccccccccccccssscccccccccccccccccccccccccc" />
      <path
         style="fill:#8c8c8c;fill-opacity:1"
         d="m 106.07029,135.75 c 0.0387,-12.7875 0.39225,-24.06659 0.78576,-25.06465 0.63353,-1.6068 1.24439,-1.34908 5.33316,2.25 L 116.8069,117 h 15.37035 15.37035 l 6.2262,-6.01736 L 160,104.96527 V 79.774428 54.583584 l 4.28785,4.208208 L 168.5757,63 h 16.43071 16.4307 l 5.06601,-5.003077 5.066,-5.003077 4.92785,5.003077 L 221.42482,63 h 16.50614 16.50615 L 259.71855,57.78416 265,52.56832 V 79.28416 106 H 238.5 212 V 132.5 159 H 159 106 Z M 206.5,112 l 4.92482,-5 H 185.71241 C 171.57058,107 160,107.26442 160,107.58759 c 0,0.32318 2.1375,2.55531 4.75,4.9603 l 4.75,4.3727 16.03759,0.0397 16.03759,0.0397 z"
         id="path1330" />
      <path
         style="fill:#868686;fill-opacity:1;stroke-width:1.0027"
         d="m 106.07151,136.35397 c 0.3608,-26.27607 0.60133,-27.06152 6.73303,-21.98706 l 3.54743,2.93578 h 16.06467 16.06467 l 5.72268,-5.80615 5.7227,-5.80615 V 82.433975 c 0,-21.325483 0.1454,-23.28992 1.75122,-23.659863 0.96317,-0.221894 3.01933,0.762213 4.56924,2.1869 l 2.818,2.590343 16.19526,-0.335994 16.19525,-0.335995 5.06108,-4.964572 c 2.7836,-2.730515 5.3729,-4.651506 5.75402,-4.26887 0.38112,0.382636 0.69293,1.999157 0.69293,3.592269 0,2.466462 0.26003,2.749376 1.75122,1.905301 1.35698,-0.768108 2.38563,-0.383528 4.56924,1.708298 l 2.81801,2.699563 16.19526,-0.335994 16.19525,-0.335995 5.25366,-5.155522 L 265,52.56832 V 79.409667 106.25101 H 238.4815 211.96299 V 132.87551 159.5 h -53.10465 -53.10465 z m 100.38764,-24.07477 4.92826,-5.02349 h -26.0574 -26.05739 l 0.44431,3.03939 c 0.31217,2.13544 0.78387,2.75646 1.586,2.08809 0.76438,-0.63691 2.29652,0.01 4.63604,1.95707 l 3.49435,2.90838 16.04879,0.027 16.04879,0.027 z"
         id="path1328" />
      <path
         style="fill:#808080;fill-opacity:1"
         d="m 106.01365,139.75 c 0.008,-10.5875 0.27337,-20.21804 0.5908,-21.40119 0.41814,-1.55855 1.53308,-2.2628 4.04705,-2.55629 1.90845,-0.2228 3.69415,-0.0423 3.96822,0.40119 0.27407,0.44346 7.99511,0.80629 17.15785,0.80629 h 16.65954 l 5.19988,-5.13529 5.19989,-5.13529 0.705,4.70127 c 0.68923,4.5961 0.77934,4.69487 4.02792,4.41499 1.82761,-0.15746 3.64706,0.0378 4.04323,0.43402 0.39617,0.39616 8.19972,0.7203 17.34123,0.7203 h 16.62092 l 4.92482,-5 4.92482,-5 H 185.71241 160 V 84.609406 62.218812 l 3.5403,-0.41331 c 2.14632,-0.250571 3.96513,0.09858 4.61924,0.886733 0.83837,1.010178 4.67554,1.181445 17.2097,0.768132 l 16.13076,-0.53191 5.05755,-4.990011 c 2.78165,-2.744505 5.36915,-4.678408 5.75,-4.297561 C 212.6884,54.021732 213,56.235943 213,58.561356 v 4.228022 l 3.47048,-0.78272 c 2.52638,-0.569791 3.78797,-0.400177 4.63754,0.623493 0.95044,1.145216 4.15756,1.304195 17.27951,0.856552 L 254.5,62.937042 259.75,57.752681 265,52.56832 V 79.28416 106 H 238.5 212 v 26.5 26.5 h -53 -53 z"
         id="path1326" />
      <path
         style="fill:#7a7a7a;fill-opacity:1"
         d="m 106,140.58179 c 0,-10.13002 0.27314,-19.13002 0.60699,-20 0.42603,-1.11023 1.91664,-1.58179 5,-1.58179 2.41616,0 4.39301,-0.45 4.39301,-1 0,-0.62556 6.07285,-1 16.21855,-1 h 16.21856 l 5.28144,-5.21584 L 159,106.56832 v 3.09084 c 0,1.69996 0.28125,4.49709 0.625,6.21584 0.58571,2.92857 0.9,3.125 5,3.125 2.40625,0 4.375,-0.45 4.375,-1 0,-0.62574 6.09586,-1 16.28759,-1 h 16.28759 l 4.92482,-5 4.92482,-5 H 185.71241 160 V 85.899306 64.798613 l 4.5,0.357899 c 2.475,0.196845 4.5,0.01716 4.5,-0.399306 C 169,64.340743 176.10442,64 184.78759,64 h 15.78759 L 205.5,59 c 2.70865,-2.75 5.23505,-5 5.61422,-5 0.37917,0 0.98972,2.5875 1.35676,5.75 l 0.66736,5.75 h 4.43083 C 220.00613,65.5 222,65.1625 222,64.75 222,64.3375 229.26429,64 238.14286,64 h 16.14285 l 5,-5 c 2.75,-2.75 5.16072,-5 5.35715,-5 C 264.83929,54 265,65.7 265,80 v 26 H 238.5 212 v 26.5 26.5 h -53 -53 z"
         id="path1324" />
      <path
         style="fill:#747474;fill-opacity:1"
         d="m 106,146.14669 c 0,-7.06932 0.28911,-15.61932 0.64246,-19 L 107.28491,121 h 3.85755 c 2.35626,0 3.90359,0.48647 3.97585,1.25 0.0651,0.6875 0.40654,-0.1 0.7588,-1.75 l 0.64049,-3 15.98673,-0.27664 15.98673,-0.27664 5.25447,-5.1892 5.25447,-5.1892 0.0137,5.46584 c 0.0219,8.78127 0.45705,9.56917 5.04309,9.13182 2.79824,-0.26686 3.97761,0.0174 4.06157,0.97899 0.0651,0.74526 0.40653,0.005 0.7588,-1.64497 l 0.64048,-3 15.98389,-0.27662 15.98388,-0.27663 4.79713,-4.72337 L 211.07962,107.5 185.78981,107 160.5,106.5 160.22805,87.14756 159.9561,67.795121 l 4.52195,0.359645 C 168.61131,68.483498 169,68.320392 169,66.257206 169,64.007483 169.05351,64 185.14286,64 h 16.14285 l 5,-5 c 2.75,-2.75 5.16072,-5 5.35715,-5 0.19643,0 0.36209,1.4625 0.36815,3.25 0.006,1.7875 0.28325,4.896339 0.61599,6.908532 0.57742,3.491776 0.80482,3.674425 4.989,4.007206 C 221.60283,68.482824 222,68.30992 222,66.257206 222,64.007048 222.05064,64 238.21855,64 h 16.21856 L 259.71855,58.78416 265,53.56832 V 79.78416 106 H 238.5 212 v 26.5 26.5 h -53 -53 z"
         id="path1322" />
      <path
         style="fill:#6e6e6e;fill-opacity:1"
         d="m 106,150.64669 c 0,-4.59432 0.28911,-11.11932 0.64246,-14.5 L 107.28491,130 h 3.85755 c 2.32328,0 3.92919,0.49716 4.0377,1.25 0.0991,0.6875 0.43659,-2.125 0.75,-6.25 l 0.56984,-7.5 15.99553,-0.27664 15.99553,-0.27664 5.25447,-5.1892 5.25447,-5.1892 0.007,5.46584 c 0.004,3.00621 0.28281,8.39084 0.61977,11.96584 l 0.61266,6.5 h 4.13023 4.13024 l 0.5,-6.5 0.5,-6.5 16.0611,-0.27387 16.0611,-0.27386 4.90131,-4.97614 4.90131,-4.97613 -11.46241,-0.004 c -6.30433,-0.002 -17.87491,-0.29701 -25.71241,-0.65555 L 160,105.6889 V 91.243754 76.798613 l 4.5,0.357899 4.5,0.3579 0.11842,-6.007206 c 0.0651,-3.303963 0.0651,-6.344706 0,-6.757206 -0.0651,-0.4125 7.17993,-0.75 16.10013,-0.75 h 16.21856 L 206.71855,58.78416 212,53.56832 v 4.064962 c 0,2.23573 0.28762,7.467526 0.63916,11.626214 l 0.63916,7.561252 4.36084,0.346832 4.36084,0.346832 0.0136,-4.507206 C 222.0424,63.51774 221.14175,64 238.83519,64 h 15.60192 L 259.71855,58.78416 265,53.56832 V 79.78416 106 H 238.5 212 v 26.5 26.5 h -53 -53 z"
         id="path1320" />
      <path
         style="fill:#686868;fill-opacity:1;stroke-width:1.00314"
         d="m 105.75369,155.12604 c 0,-2.40567 0.29372,-7.19315 0.65273,-10.63884 l 0.65273,-6.26488 4.35502,0.34747 4.35501,0.34747 v -4.63238 c 0,-2.54781 0.28956,-7.41151 0.64346,-10.80822 l 0.64344,-6.17584 h 15.60023 15.60023 l 5.28962,-5.24058 5.28963,-5.24057 v 12.65055 c 0,6.9578 0.27338,14.02177 0.6075,15.69771 0.54866,2.75204 1.02465,3.08047 4.91465,3.39101 l 4.30716,0.34384 0.70333,-10.80098 0.70333,-10.80098 h 15.63344 15.63344 l 5.28963,-5.24058 5.28963,-5.24057 V 133.15983 159.5 h -53.08211 -53.0821 z M 159.83734,95.095314 V 83.941977 l 4.4276,0.353264 4.4276,0.353263 0.69978,-10.299516 0.69978,-10.299517 h 15.62328 15.62326 l 5.28963,-5.240575 5.28963,-5.240576 0.0877,11.017844 c 0.0483,6.059815 0.38628,13.052448 0.75116,15.539186 0.65943,4.494146 0.68752,4.521341 4.66962,4.521341 3.89337,0 4.02525,-0.113181 4.68312,-4.01897 0.37231,-2.210433 0.71033,-6.844808 0.75116,-10.29861 l 0.0743,-6.27964 h 15.7429 15.74291 l 5.2896,-5.240575 L 265,53.56832 v 26.340166 26.340164 h -52.58133 -52.58133 z"
         id="path1318" />
      <path
         style="fill:#626262;fill-opacity:1;stroke-width:1.00472"
         d="m 106.10327,153.88004 0.34957,-5.62069 4.29349,0.34452 4.29348,0.34453 0.62564,-8.03779 c 0.3441,-4.42078 0.62835,-11.3157 0.63166,-15.32203 l 0.006,-7.28425 h 15.29267 15.29267 l 5.80621,-5.74571 5.80621,-5.7457 0.0579,17.5512 c 0.0318,9.65317 0.37094,19.13365 0.75353,21.06774 0.66052,3.339 0.90512,3.51654 4.84531,3.51654 h 4.14969 l 0.61554,-6.53071 c 0.33855,-3.59188 0.61875,-10.4868 0.62268,-15.32203 l 0.007,-8.79133 h 15.29267 15.29267 l 5.80621,-5.74571 5.80622,-5.7457 v 26.34253 26.34254 l -52.99838,0.001 -52.99838,0.001 0.34958,-5.62069 z m 53.40233,-53.25953 v -5.627152 l 4.39955,0.352349 4.39956,0.352351 0.61684,-6.530702 c 0.33927,-3.591886 0.62006,-10.712863 0.62399,-15.824393 l 0.007,-9.293691 h 15.79257 15.79257 l 5.30631,-5.240476 5.30632,-5.240476 v 14.637964 c 0,8.050881 0.28621,17.376298 0.63602,20.72315 l 0.63602,6.085185 4.27744,0.341719 4.27745,0.34172 0.6037,-5.023617 c 0.33202,-2.762989 0.60763,-9.883966 0.61243,-15.824393 l 0.009,-10.800776 h 15.79256 15.79257 L 259.69368,58.808796 265,53.56832 v 26.339667 26.339663 h -52.7472 -52.7472 z"
         id="path1316" />
      <path
         style="fill:#5d5d5d;fill-opacity:1"
         d="M 111.7933,153.7093 117,148.43711 V 133.21855 118 h 15.221 15.221 l 5.779,-5.7187 5.779,-5.71869 v 22.59369 c 0,12.42654 0.28796,24.03352 0.63992,25.79329 l 0.63992,3.1996 4.86008,-4.787 L 170,148.57518 V 133.28759 118 h 15.221 15.221 l 5.779,-5.7187 5.779,-5.71869 v 26.20943 26.20944 H 159.2933 106.58661 Z M 160,105.09267 c 0,-0.49903 2.25,-2.93027 5,-5.402761 l 5,-4.49543 V 79.597239 64 h 15.71855 15.71856 l 5.28144,-5.21584 5.28145,-5.21584 0.0741,20.96584 c 0.0408,11.531212 0.37827,22.920521 0.75,25.309576 l 0.6759,4.343734 4.75,-4.273755 4.75,-4.273758 V 79.819979 64 h 15.71855 15.71856 L 259.71855,58.78416 265,53.56832 V 79.78416 106 h -52.5 c -30.75865,0 -52.5,-0.37574 -52.5,-0.90733 z"
         id="path1314" />
      <path
         style="fill:#575757;fill-opacity:1;stroke-width:1.00496"
         d="m 110.70405,154.47629 4.95035,-5.02371 h 15.86946 15.86945 v -15.41222 -15.41222 l 5.51343,-5.93856 5.51343,-5.93856 0.0151,26.37449 0.0151,26.37449 h -26.34833 -26.34833 z m 53.27482,0 4.95036,-5.02371 h 15.86945 15.86946 v -15.35665 -15.35664 l 5.52852,-5.45744 5.52852,-5.45744 V 133.66221 159.5 h -26.34834 -26.34833 z m 0.50259,-53.75372 5.45985,-5.526084 h 15.36341 15.36342 V 79.839842 64.483198 l 5.52852,-5.457439 5.52852,-5.457439 V 79.908486 106.24865 H 185.3734 159.02162 Z m 53.27483,0 5.45984,-5.526084 h 15.36342 15.36341 V 79.839842 64.483198 L 259.47148,59.025759 265,53.56832 v 26.340166 26.340164 h -26.35178 -26.35178 z"
         id="path1312" />
      <path
         style="fill:#515151;fill-opacity:1"
         d="m 112.5,154 4.92482,-5 h 15.94258 15.94259 l -0.59906,-15.3394 -0.59905,-15.33941 5.44406,-5.37643 5.44406,-5.37644 -0.0137,20.46584 c -0.008,11.25621 -0.26695,21.40935 -0.57654,22.56254 -0.44065,1.64137 -1.14345,1.99226 -3.23634,1.6158 -1.4704,-0.26449 -3.34846,-0.96038 -4.17346,-1.54642 -0.825,-0.58604 0.50619,1.04935 2.95821,3.6342 L 158.41642,159 H 132.9958 107.57518 Z m 53,0 4.92482,-5 h 15.83159 15.83159 l -0.14019,-15.64191 -0.14019,-15.6419 L 206.90381,112.62 212,107.52381 v 22.34313 22.34313 l -3.98306,-0.37984 -3.98305,-0.37985 3.686,3.77481 L 211.4059,159 h -25.41536 -25.41536 z m -1,-53 4.92482,-5 h 16.33067 16.33068 l -0.13702,-16.144163 -0.13702,-16.144162 5.11085,-5.105838 5.11084,-5.105837 -0.26691,23 -0.26691,23 -2.5,-0.347574 c -1.375,-0.191166 -3.175,-0.843542 -4,-1.449725 -0.825,-0.606183 0.50619,1.012725 2.95821,3.597579 L 212.41642,106 H 185.9958 159.57518 Z m 53,0 4.92482,-5 h 16.33067 16.33068 L 254.94915,79.855837 254.81213,63.711675 259.90607,58.617742 265,53.52381 V 76.261905 99 h -2.67126 c -1.46919,0 -3.60669,-0.773611 -4.75,-1.719136 -1.14331,-0.945524 0.15434,0.629476 2.88367,3.499996 L 265.42482,106 H 239 212.57518 Z"
         id="path1310" />
      <path
         style="fill:#4b4b4b;fill-opacity:1;stroke-width:1.00818"
         d="m 110.22147,154.97867 4.46776,-4.52132 h 16.27054 16.27054 l 4.46776,4.52132 4.46776,4.52133 h -25.20606 -25.20606 z m 53.61609,0 4.46776,-4.52132 h 16.27054 16.27054 l 4.46776,4.52132 4.46776,4.52133 H 184.57586 159.3698 Z m -16.06864,-29.67758 -0.11735,-7.57331 5.05812,-4.94816 5.05812,-4.94816 v 8.12574 c 0,4.46916 -0.26347,9.43417 -0.5855,11.03336 -0.54092,2.68616 -0.88058,2.87969 -4.45939,2.54072 -3.1022,-0.29384 -3.96975,0.003 -4.35525,1.4881 -0.26477,1.02027 -0.53421,-1.55297 -0.59875,-5.71829 z m 53.61609,0 -0.11735,-7.57331 5.05813,-4.94816 5.05812,-4.94816 v 7.62337 c 0,4.19286 -0.28452,9.03628 -0.63227,10.76318 -0.57509,2.85586 -0.98006,3.13981 -4.47814,3.13981 -2.81207,0 -3.97022,0.47264 -4.30849,1.75829 -0.25446,0.96707 -0.51546,-1.6497 -0.58,-5.81502 z m -37.13624,-24.07597 5.34822,-5.023698 h 15.62045 15.62047 l 4.98206,5.023698 4.98207,5.0237 H 184.8513 158.90055 Z m 53.7107,0 4.98206,-5.023698 h 15.75624 15.75623 l 4.98207,5.023698 4.98206,5.0237 H 238.69777 212.9774 Z m -16.55404,-29.677582 -0.13777,-8.075685 5.0949,-4.984129 5.09489,-4.984129 -0.28968,11.032426 -0.28967,11.032424 -4.21966,-0.304387 c -3.7254,-0.268734 -4.27212,-0.03126 -4.66746,2.027389 -0.24629,1.282476 -0.50978,-1.302282 -0.58555,-5.743909 z m 53.59567,-0.288114 -0.11734,-7.359059 5.0363,-5.200182 5.0363,-5.200183 0.0218,10.800948 L 265,75.101896 h -4.47814 c -3.41422,0 -4.58804,0.417731 -4.94076,1.758294 -0.25445,0.967061 -0.51545,-1.553283 -0.58,-5.600766 z"
         id="path1308" />
      <path
         style="fill:#454545;fill-opacity:1"
         d="m 154.5,112 c 2.14824,-2.2 4.1309,-4 4.4059,-4 0.275,0 -1.25766,1.8 -3.4059,4 -2.14824,2.2 -4.1309,4 -4.4059,4 -0.275,0 1.25766,-1.8 3.4059,-4 z m 53,0 c 2.14824,-2.2 4.1309,-4 4.4059,-4 0.275,0 -1.25766,1.8 -3.4059,4 -2.14824,2.2 -4.1309,4 -4.4059,4 -0.275,0 1.25766,-1.8 3.4059,-4 z M 210,56.118034 c 0,-0.55 0.45,-1.278115 1,-1.618034 0.55,-0.339919 1,-0.168034 1,0.381966 0,0.55 -0.45,1.278115 -1,1.618034 -0.55,0.339919 -1,0.168034 -1,-0.381966 z"
         id="path1306" />
    </g>
  </g>
</svg>
